<svg xmlns="http://www.w3.org/2000/svg" viewBox="864.47 1988 323.685 111.358">
  <defs>
    <style>
      .cls-1 {
        fill: #fff;
      }
    </style>
  </defs>
  <g id="Group_10" data-name="Group 10" transform="translate(642.095 1189.514)">
    <path id="Path_5" data-name="Path 5" class="cls-1" d="M0-165.039H49.8V-100.3H29.879v-24.9h-9.96v24.9H0ZM19.919-150.1v9.96h9.96v-9.96Zm54.777,0v9.96h9.96v-9.96Zm0,24.9v24.9H54.777v-64.737h49.8V-125.2Zm54.777,0h9.96v-24.9h-9.96Zm-19.919,14.939v-54.777h49.8v54.777Zm49.8,4.98v14.939h-49.8v-14.939Zm54.777-59.757V-150.1H184.251v34.858h9.96v-9.96h-4.98V-140.14h24.9V-100.3h-49.8v-64.737Zm24.9,39.838h29.879v14.939h-49.8v-54.777h49.8V-150.1H239.029v4.98h29.879v14.939H239.029Zm29.879,19.919v14.939h-49.8v-14.939Zm24.9-19.919h29.879v14.939h-49.8v-54.777h49.8V-150.1H293.806v4.98h29.879v14.939H293.806Zm29.879,19.919v14.939h-49.8v-14.939Z" transform="translate(222.375 963.525)"/>
    <path id="Path_34" data-name="Path 34" class="cls-1" d="M10.938-15.625V0H4.688V-15.625H0v-4.687H15.625v4.688Zm12.5,7.813V0h-6.25V-20.312h6.25V-12.5h3.125v-7.812h6.25V0h-6.25V-7.812ZM40.625-4.687H50V0H34.375V-20.312H50v4.688H40.625V-12.5H50v4.688H40.625Zm28.25-10.937H65.75V-4.687h3.125V-7.812h6.25V0H59.5V-20.312H75.125V-12.5h-6.25Zm12.5,7.813H76.688v-12.5h6.25V-12.5h3.125v-7.812h6.25v12.5H87.625V0h-6.25Zm18.75-7.812V-12.5h3.125v-3.125ZM93.875,0V-20.312H109.5V-12.5l-2.344,2.344L109.5-7.812V0Zm6.25-4.687h3.125V-7.812h-3.125Zm17.188,0h9.375V0H111.063V-20.312h15.625v4.688h-9.375V-12.5h9.375v4.688h-9.375ZM134.5-15.625V-12.5h3.125v-3.125Zm0,7.813V0h-6.25V-20.312h15.625V-12.5l-3.125,2.359,3.125,2.328V0h-6.25V-7.812Zm26.563-12.5V0h-6.25V-15.625h-3.125V0h-6.25V-20.312Zm7.813,15.625h9.375V0H162.625V-20.312H178.25v4.688h-9.375V-12.5h9.375v4.688h-9.375ZM190.75-15.625V0H184.5V-15.625h-4.687v-4.687h15.625v4.688Zm12.5-4.687V0H197V-20.312Zm10.938,4.688h-3.125V-4.687h3.125V-7.812h6.25V0H204.813V-20.312h15.625V-12.5h-6.25Zm15.75,9.375V-20.312h6.25v12.5L237.75-6.25l1.563-1.562v-12.5h6.25V-6.25L237.75,1.563Zm23.438-14.062V0h-6.25V-20.312Zm10.938,4.688h-3.125V-12.5h9.375V0H254.938V-6.25h6.25v1.563h3.125V-7.812h-9.375v-12.5h15.625v6.25h-6.25Zm14.063-4.687V0h-6.25V-20.312Zm7.813,12.5h3.125v-7.812h-3.125Zm-6.25,4.688V-20.312h15.625V-3.125Zm15.625,1.563V3.125H279.938V-1.562Zm17.188-18.75V0H306.5V-15.625h-3.125V0h-6.25V-20.312Z" transform="translate(223.739 906.719)"/>
  </g>
</svg>
